<svg width="14" height="20" viewBox="0 0 14 20" fill="none" xmlns="http://www.w3.org/2000/svg">
<path d="M4 19C4 19.5625 4.46875 19.9844 4.98438 19.9844H9.01562C9.53125 19.9844 10 19.5625 10 19V18.0156H4V19ZM7 0.015625C3.15625 0.015625 0.015625 3.15625 0.015625 7C0.015625 9.39062 1.1875 11.4531 3.01562 12.7188V15.0156C3.01562 15.5312 3.4375 16 4 16H10C10.5625 16 10.9844 15.5312 10.9844 15.0156V12.7188C12.8125 11.4531 13.9844 9.39062 13.9844 7C13.9844 3.15625 10.8438 0.015625 7 0.015625ZM9.85938 11.0781L9.01562 11.6875V13.9844H4.98438V11.6875L4.14062 11.0781C2.78125 10.1406 1.98438 8.64062 1.98438 7C1.98438 4.23438 4.23438 1.98438 7 1.98438C9.76562 1.98438 12.0156 4.23438 12.0156 7C12.0156 8.64062 11.2188 10.1406 9.85938 11.0781Z" fill="#676777"/>
</svg>
