<svg width="61" height="61" viewBox="0 0 61 61" fill="none" xmlns="http://www.w3.org/2000/svg">
<path d="M28.8277 1.74095C30.131 1.15609 31.4909 0.712688 32.8848 0.418034C33.9064 0.418034 34.2858 0.288727 36.2317 2.40738C38.1775 4.52603 45.1048 15.2188 46.3794 17.0788C47.6539 18.9388 55.5833 31.9989 56.7703 34.9829C57.8599 37.758 59.7669 40.4237 55.9919 43.5569C52.3436 46.4013 48.4335 48.8765 44.3167 50.9474C42.2736 51.9918 38.878 53.9314 36.8933 54.7072C34.9085 55.4831 34.4318 56.0898 29.9855 55.4134C25.5392 54.7371 21.0831 53.9612 18.4368 53.3545C15.7904 52.7477 11.13 51.6635 8.82418 50.3704C6.51833 49.0774 5.32163 49.2365 5.02002 44.0443C4.79022 39.8777 5.09111 35.6983 5.91512 31.6109C6.54752 27.8312 7.7345 21.0774 8.73662 18.541C9.73874 16.0045 10.4101 14.2141 14.2629 11.1804C18.1157 8.14663 20.7912 6.33633 23.0193 4.85427C24.9018 3.71517 26.8405 2.67602 28.8277 1.74095ZM24.6051 6.65463C23.8171 7.25143 20.0032 10.6333 18.6897 11.5683C17.7168 12.2845 13.504 16.0941 12.3073 18.2227C11.2662 20.0628 11.0036 23.0866 10.5463 25.5932C10.089 28.0997 9.07715 34.7442 8.83391 36.9523C8.59068 39.1605 8.24042 44.8102 8.34745 45.3772C8.37892 45.7148 8.53982 46.0259 8.795 46.2426C9.42077 46.7249 10.0884 47.1478 10.7895 47.5058C12.2781 48.3911 17.8919 50.7086 21.7642 52.2205C25.6364 53.7324 31.727 54.7768 33.3713 54.5282C35.9146 53.836 38.344 52.7635 40.5807 51.3452C43.2465 49.3559 47.8485 46.0436 49.1619 44.7108C50.8354 42.9999 52.3045 41.6571 53.5401 40.4138C53.6983 40.2944 53.8174 40.1287 53.8816 39.9387C53.9459 39.7487 53.9523 39.5433 53.9001 39.3495C53.8028 39.061 52.8007 36.7733 51.604 34.1871C50.4073 31.601 48.4614 27.5029 46.8464 24.0415C45.2313 20.58 42.5557 15.3978 40.8142 12.2845C39.4403 9.87923 37.9025 7.57584 36.2122 5.39139C35.383 4.283 34.4258 3.28107 33.3615 2.40738C32.8848 2.0294 32.3886 2.16866 31.5616 2.40738C30.6381 2.72758 29.7535 3.15475 28.925 3.68056C28.925 3.68056 25.3738 6.06777 24.6051 6.65463Z" fill="#E03B58"/>
<path d="M59.0163 28.5376C59.6176 29.9255 60.0804 31.3717 60.3979 32.8545C60.4465 33.9387 60.5438 34.3465 58.5006 36.4552C56.4575 38.5639 45.9109 46.0638 44.0915 47.3966C42.2721 48.7295 29.4975 57.3433 26.4717 58.6861C23.7378 59.8698 21.1206 61.9487 17.9586 57.9401C15.0869 54.0566 12.5817 49.9035 10.4767 45.5366C9.41621 43.3682 7.45089 39.7575 6.65308 37.6488C5.85528 35.5401 5.24233 35.0329 5.86501 30.2883C6.48768 25.5437 7.1882 20.7593 7.7525 17.9344C8.3168 15.1096 9.32865 10.1163 10.574 7.63959C11.8194 5.16286 11.6345 3.92947 16.7716 3.54154C20.9023 3.26027 25.0513 3.54461 29.1084 4.38702C32.8541 5.01366 39.5674 6.20727 42.097 7.25167C44.6266 8.29608 46.4071 8.99235 49.4621 13.0705C52.5171 17.1487 54.3268 20.0332 55.8543 22.4005C57.3818 24.7678 59.1525 28.8758 59.0163 28.5376ZM54.0835 24.0815C53.49 23.246 50.1918 19.1778 49.141 17.825C48.0903 16.4723 44.3347 12.0758 42.457 11.0812C40.5792 10.0865 37.5923 9.7483 35.1308 9.2808C32.6693 8.81331 26.0339 7.81863 23.8448 7.6197C21.6557 7.42077 16.0613 7.07263 15.4873 7.18204C15.1509 7.23193 14.8452 7.40949 14.6311 7.67938C14.1643 8.35568 13.7542 9.07107 13.4052 9.81792C12.5491 11.4193 10.3308 17.4371 8.89083 21.5849C7.45089 25.7327 6.48768 32.2478 6.75038 33.9984C7.47174 36.6995 8.56594 39.2818 9.99997 41.6673C12.0042 44.4922 15.3511 49.3561 16.7035 50.7487C18.4158 52.5192 19.7682 54.0709 21.0136 55.3739C21.1284 55.5373 21.2917 55.6584 21.4793 55.7193C21.6668 55.7803 21.8686 55.7777 22.0546 55.7121C22.3465 55.6027 24.6037 54.5085 27.143 53.2055C29.6824 51.9025 33.7395 49.7739 37.135 48.0133C40.5306 46.2528 45.6579 43.3284 48.7227 41.4485C51.1059 39.9587 53.3818 38.2967 55.5332 36.4751C56.62 35.563 57.5995 34.5249 58.452 33.3817C58.812 32.8645 58.666 32.3273 58.452 31.462C58.1189 30.4811 57.6817 29.5405 57.1483 28.657C57.1483 28.657 54.6867 24.917 54.0835 24.0815Z" fill="#9F75A1"/>
<path d="M41.1454 57.8608C40.0927 58.8742 38.9382 59.771 37.7012 60.5365C36.7283 60.9244 36.3975 61.1532 33.8095 59.7706C31.2215 58.388 21.0057 50.2914 19.1669 48.9187C17.3281 47.5461 5.34154 37.5496 3.18163 34.9933C1.20657 32.6558 -1.52736 30.7063 1.05091 26.3496C3.60319 22.3193 6.53603 18.5547 9.80729 15.1098C11.4126 13.389 14.0298 10.3354 15.6449 8.88318C17.26 7.43096 17.5421 6.6949 22.0273 5.83949C26.5125 4.98407 31.0561 4.19828 33.7901 3.85014C36.524 3.50201 41.3789 3.02456 44.0253 3.54179C46.6717 4.05902 47.7711 3.45227 49.8045 8.41569C51.4176 12.4058 52.5228 16.5911 53.093 20.869C53.7644 24.7681 54.893 31.8104 54.7859 34.6054C54.6789 37.4004 54.6303 39.3997 51.9547 43.6868C49.2791 47.9738 47.3236 50.6495 45.6404 52.8875C44.2257 54.6223 42.7255 56.2822 41.1454 57.8608ZM43.5486 51.6043C44.1031 50.7589 46.6814 46.2033 47.5668 44.7809C48.4521 43.3585 51.1764 38.2558 51.4585 36.0875C51.7407 33.9191 51.0693 30.8953 50.6704 28.2793C50.2715 25.6633 48.997 18.8398 48.4619 16.6118C47.9268 14.3837 46.3895 8.73398 46.0977 8.21675C46.027 8.05831 45.9261 7.91595 45.8008 7.79807C45.6754 7.68019 45.5283 7.58919 45.368 7.53043C44.6099 7.26505 43.8276 7.07843 43.0329 6.97341C41.3108 6.62528 35.1522 6.28709 30.9199 6.13789C26.6877 5.98869 20.5095 7.07288 19.021 7.86862C16.8137 9.42056 14.8461 11.3014 13.1834 13.4487C11.2375 16.3034 7.98791 21.1276 7.18038 22.8882C6.14907 25.1262 5.23451 26.9464 4.42698 28.5777C4.31184 28.7452 4.25005 28.9449 4.25005 29.1496C4.25005 29.3543 4.31184 29.5541 4.42698 29.7216C4.62156 29.9702 6.37284 31.8601 8.36735 33.9788C10.3619 36.0974 13.6309 39.4296 16.3454 42.2445C19.0599 45.0594 23.3602 49.2072 26.0747 51.664C28.197 53.5377 30.4433 55.2593 32.7977 56.8164C33.9713 57.6138 35.2358 58.2618 36.5629 58.7461C37.1467 58.945 37.5942 58.6367 38.2947 58.1493C39.0812 57.5234 39.7901 56.8019 40.406 56.0008C40.406 56.0008 42.994 52.4498 43.5486 51.6043Z" fill="#EC6162"/>
</svg>
