<svg width="183" height="36" viewBox="0 0 183 36" fill="none" xmlns="http://www.w3.org/2000/svg">
<g clip-path="url(#clip0)">
<path d="M55.7762 24.2547H48.9833C48.9424 24.2547 48.9033 24.2384 48.8744 24.2096C48.8455 24.1807 48.8293 24.1415 48.8293 24.1006V9.51097C48.8301 9.43994 48.8167 9.36946 48.7899 9.30367C48.7631 9.23789 48.7234 9.17812 48.6732 9.12789C48.623 9.07766 48.5633 9.03796 48.4975 9.01115C48.4318 8.98433 48.3614 8.97092 48.2904 8.97171H46.7387C46.5816 8.97171 46.431 9.03415 46.3199 9.14528C46.2089 9.25641 46.1465 9.40714 46.1465 9.56431V26.3347C46.1465 26.4918 46.2089 26.6426 46.3199 26.7537C46.431 26.8648 46.5816 26.9273 46.7387 26.9273H55.717C55.874 26.9273 56.0247 26.8648 56.1357 26.7537C56.2468 26.6426 56.3092 26.4918 56.3092 26.3347V24.7939C56.3092 24.6519 56.2532 24.5157 56.1535 24.4147C56.0537 24.3137 55.9181 24.2562 55.7762 24.2547Z" fill="#2C252D"/>
<path d="M65.062 8.97754H63.511C63.3539 8.97754 63.2034 9.03997 63.0923 9.15111C62.9813 9.26224 62.9189 9.41297 62.9189 9.57013V26.4116C62.9189 26.5546 62.9757 26.6918 63.0767 26.7929C63.1778 26.8941 63.3148 26.9509 63.4577 26.9509H65.0028C65.1598 26.9509 65.3104 26.8884 65.4215 26.7773C65.5325 26.6662 65.5949 26.5155 65.5949 26.3583V9.51087C65.5933 9.3699 65.5367 9.23514 65.4371 9.13545C65.3375 9.03576 65.2029 8.97908 65.062 8.97754Z" fill="#2C252D"/>
<path d="M86.7739 8.97754H85.0742C84.9092 8.97788 84.7483 9.02933 84.6136 9.12482C84.4789 9.22031 84.3771 9.35516 84.3221 9.51087L79.6375 23.0635C79.6286 23.0942 79.6099 23.1213 79.5842 23.1405C79.5586 23.1597 79.5274 23.1701 79.4954 23.1701C79.4634 23.1701 79.4322 23.1597 79.4066 23.1405C79.3809 23.1213 79.3622 23.0942 79.3533 23.0635L74.6154 9.51087C74.5604 9.35516 74.4586 9.22031 74.3239 9.12482C74.1892 9.02933 74.0283 8.97788 73.8633 8.97754H72.1873C72.1234 8.97747 72.0604 8.99283 72.0038 9.02232C71.9471 9.0518 71.8984 9.09453 71.8618 9.14689C71.8251 9.19925 71.8017 9.25968 71.7934 9.32304C71.7851 9.38641 71.7922 9.45085 71.8142 9.51087L77.8964 26.5598C77.9371 26.6764 78.0132 26.7773 78.1141 26.8485C78.215 26.9197 78.3356 26.9575 78.459 26.9568H80.4607C80.5824 26.9567 80.7012 26.9192 80.8008 26.8492C80.9004 26.7792 80.9761 26.6802 81.0174 26.5657L87.153 9.51087C87.1736 9.45037 87.1796 9.38581 87.1704 9.32254C87.1612 9.25926 87.1371 9.19908 87.1001 9.14697C87.0631 9.09486 87.0142 9.05232 86.9575 9.02286C86.9007 8.9934 86.8378 8.97786 86.7739 8.97754Z" fill="#2C252D"/>
<path d="M118.369 8.97754H112.323C112.166 8.97754 112.015 9.03997 111.904 9.15111C111.793 9.26224 111.73 9.41297 111.73 9.57013V26.4116C111.732 26.5552 111.79 26.6923 111.892 26.7933C111.994 26.8943 112.132 26.9509 112.275 26.9509H113.886C114.029 26.9509 114.166 26.8941 114.267 26.7929C114.368 26.6918 114.425 26.5546 114.425 26.4116V20.8294C114.427 20.7896 114.444 20.7519 114.472 20.7243C114.501 20.6966 114.539 20.6812 114.579 20.6812H118.381C119.154 20.6973 119.921 20.5573 120.638 20.2696C121.355 19.982 122.007 19.5526 122.554 19.0071C123.102 18.4616 123.533 17.8113 123.824 17.095C124.114 16.3787 124.257 15.6112 124.244 14.8383C124.26 14.0647 124.118 13.2961 123.829 12.5786C123.539 11.8612 123.108 11.2098 122.56 10.6639C122.012 10.1179 121.359 9.68856 120.641 9.4018C119.923 9.11503 119.154 8.97676 118.381 8.99532L118.369 8.97754ZM120.567 17.3272C120.272 17.6341 119.916 17.876 119.523 18.0372C119.129 18.1985 118.706 18.2755 118.281 18.2635H114.567C114.527 18.2635 114.489 18.2481 114.46 18.2205C114.432 18.1928 114.415 18.1551 114.413 18.1153V11.8161C114.415 11.7762 114.432 11.7385 114.46 11.7109C114.489 11.6833 114.527 11.6679 114.567 11.6679H118.281C118.706 11.6568 119.129 11.7337 119.524 11.8938C119.918 12.0538 120.275 12.2937 120.572 12.5983C120.874 12.9131 121.109 13.2849 121.265 13.692C121.42 14.099 121.493 14.5331 121.479 14.9687C121.489 15.4016 121.414 15.8324 121.257 16.2361C121.101 16.6399 120.866 17.0087 120.567 17.3212V17.3272Z" fill="#2C252D"/>
<path d="M137.208 9.49909C137.149 9.3445 137.044 9.21147 136.908 9.11738C136.771 9.02329 136.61 8.97251 136.444 8.97168H134.585C134.464 8.97129 134.346 9.008 134.246 9.07686C134.146 9.14573 134.07 9.24345 134.028 9.35687L127.673 26.4058C127.65 26.4669 127.642 26.5328 127.651 26.5976C127.659 26.6625 127.682 26.7244 127.72 26.7781C127.757 26.8318 127.807 26.8755 127.865 26.9056C127.923 26.9358 127.987 26.9513 128.052 26.9509H129.746C129.92 26.9505 130.089 26.8969 130.231 26.7973C130.372 26.6977 130.48 26.5569 130.54 26.3939L131.724 23.2117C131.742 23.1655 131.774 23.1259 131.816 23.0984C131.857 23.0708 131.906 23.0566 131.955 23.0576H139.222C139.271 23.057 139.319 23.0714 139.359 23.099C139.399 23.1266 139.43 23.1659 139.447 23.2117L140.602 26.3939C140.663 26.5569 140.772 26.6974 140.915 26.7969C141.058 26.8963 141.227 26.9501 141.401 26.9509H143.113C143.179 26.9503 143.243 26.9339 143.301 26.903C143.359 26.8722 143.408 26.8279 143.445 26.7739C143.483 26.7198 143.506 26.6576 143.514 26.5925C143.522 26.5274 143.515 26.4613 143.492 26.3998L137.208 9.49909ZM138.351 20.6576H132.826C132.802 20.6569 132.778 20.6507 132.757 20.6394C132.736 20.6281 132.718 20.612 132.704 20.5924C132.691 20.5729 132.682 20.5504 132.678 20.5267C132.674 20.5031 132.676 20.4789 132.684 20.4561L135.449 12.8591C135.461 12.831 135.481 12.807 135.506 12.7902C135.531 12.7733 135.561 12.7643 135.592 12.7643C135.622 12.7643 135.652 12.7733 135.677 12.7902C135.702 12.807 135.722 12.831 135.734 12.8591L138.494 20.4561C138.502 20.4789 138.505 20.5035 138.502 20.5277C138.499 20.5519 138.49 20.575 138.476 20.5949C138.462 20.6149 138.444 20.631 138.422 20.642C138.4 20.6529 138.376 20.6583 138.351 20.6576Z" fill="#2C252D"/>
<path d="M182.384 24.5509H174.756C174.717 24.5509 174.679 24.5353 174.652 24.5075C174.624 24.4797 174.608 24.4421 174.608 24.4028V19.3124C174.608 19.2725 174.624 19.2342 174.651 19.2055C174.679 19.1768 174.717 19.1598 174.756 19.1583H181.49C181.647 19.1583 181.798 19.0959 181.909 18.9847C182.02 18.8736 182.082 18.7229 182.082 18.5657V17.3035C182.082 17.1605 182.026 17.0233 181.924 16.9222C181.823 16.8211 181.686 16.7642 181.543 16.7642H174.756C174.717 16.7627 174.679 16.7458 174.651 16.7171C174.624 16.6883 174.608 16.65 174.608 16.6102V11.5198C174.606 11.4986 174.608 11.4771 174.614 11.4568C174.62 11.4364 174.631 11.4175 174.645 11.4013C174.659 11.3852 174.676 11.3721 174.695 11.3629C174.714 11.3537 174.735 11.3486 174.756 11.3479H182.384C182.541 11.3479 182.692 11.2855 182.803 11.1744C182.914 11.0632 182.977 10.9125 182.977 10.7554V9.4872C182.976 9.4195 182.962 9.35261 182.935 9.29035C182.908 9.2281 182.87 9.1717 182.821 9.12438C182.773 9.07705 182.716 9.03973 182.653 9.01454C182.59 8.98935 182.523 8.97679 182.455 8.97757H172.82C172.663 8.97757 172.512 9.04001 172.401 9.15114C172.29 9.26227 172.228 9.413 172.228 9.57017V26.4116C172.228 26.4825 172.241 26.5526 172.269 26.618C172.296 26.6834 172.335 26.7429 172.385 26.793C172.435 26.843 172.495 26.8828 172.56 26.9099C172.626 26.937 172.696 26.9509 172.766 26.9509H182.396C182.469 26.9565 182.543 26.9474 182.613 26.9241C182.683 26.9008 182.747 26.8637 182.802 26.8151C182.857 26.7665 182.902 26.7074 182.934 26.6411C182.966 26.5749 182.985 26.5029 182.988 26.4294V25.0783C182.985 25.0035 182.966 24.9302 182.933 24.8629C182.901 24.7955 182.855 24.7354 182.798 24.6861C182.742 24.6369 182.676 24.5996 182.605 24.5763C182.534 24.5531 182.459 24.5444 182.384 24.5509Z" fill="#2C252D"/>
<path d="M165.239 22.4595L164.25 21.8669C163.93 21.6832 163.788 21.6892 163.54 22.0151C162.989 22.7726 162.297 23.4165 161.502 23.9114C160.503 24.4881 159.369 24.7868 158.215 24.7766C157.312 24.8103 156.41 24.6578 155.568 24.3284C154.726 23.999 153.96 23.4998 153.318 22.8618C152.677 22.2238 152.173 21.4607 151.839 20.6198C151.505 19.7789 151.347 18.8782 151.375 17.9736C151.344 17.0676 151.5 16.1649 151.834 15.3219C152.167 14.4789 152.67 13.7136 153.312 13.0737C153.953 12.4338 154.72 11.933 155.564 11.6025C156.407 11.272 157.31 11.119 158.215 11.1529C159.368 11.1434 160.502 11.4399 161.502 12.0121C162.251 12.5263 162.925 13.1426 163.504 13.8432C163.83 14.1988 163.978 14.1988 164.309 14.0506L165.322 13.458C165.63 13.2566 165.672 13.0966 165.672 12.9188C165.66 12.7686 165.602 12.6258 165.506 12.5099C164.777 11.4579 163.819 10.5847 162.704 9.95583C161.306 9.14216 159.717 8.71427 158.099 8.71582C156.481 8.71738 154.893 9.14831 153.496 9.96466C152.099 10.781 150.944 11.9536 150.148 13.3626C149.352 14.7717 148.943 16.3669 148.965 17.9855C148.974 19.5935 149.402 21.1713 150.206 22.5634C151.011 23.9554 152.164 25.1136 153.552 25.9236C154.941 26.7336 156.516 27.1675 158.123 27.1825C159.73 27.1975 161.313 26.7931 162.716 26.0092C163.762 25.4158 164.67 24.608 165.381 23.6388C165.558 23.45 165.661 23.2039 165.672 22.9455C165.624 22.7499 165.583 22.6492 165.239 22.4595Z" fill="#2C252D"/>
<path d="M101.947 17.7303C101.001 17.3143 100.028 16.9639 99.0335 16.6814C97.7069 16.2547 95.6045 15.7096 95.4801 13.8133C95.4537 13.4712 95.5155 13.1281 95.6596 12.8168C95.8038 12.5055 96.0254 12.2365 96.3033 12.0355C96.9344 11.5637 97.7073 11.3213 98.4946 11.3481C100.094 11.3481 100.893 12.3081 101.912 13.4399C102.155 13.7125 102.314 13.8784 102.504 13.9021C102.624 13.9211 102.748 13.8981 102.853 13.837L104.281 12.9955C104.367 12.9466 104.432 12.8672 104.463 12.7729C104.493 12.6786 104.487 12.5762 104.447 12.4859C103.936 11.4371 103.16 10.5402 102.196 9.88437C101.108 9.15962 99.8249 8.78533 98.5183 8.81178C97.0728 8.77257 95.6618 9.25653 94.5444 10.1747C94.0052 10.6264 93.5766 11.1955 93.2912 11.8385C93.0058 12.4815 92.8713 13.1813 92.898 13.8844C92.8823 14.4859 93.0017 15.0833 93.2474 15.6325C93.6959 16.5636 94.4334 17.3244 95.3498 17.8014C96.3535 18.2907 97.3906 18.7086 98.4531 19.0518C99.5498 19.3559 100.604 19.7958 101.592 20.3614C101.886 20.5508 102.123 20.8157 102.28 21.1285C102.436 21.4413 102.505 21.7904 102.48 22.1392C102.492 22.4991 102.416 22.8565 102.26 23.1807C102.103 23.5048 101.87 23.786 101.58 23.9999C100.793 24.5209 99.8566 24.7687 98.9151 24.7051C96.8363 24.7051 95.5689 23.9821 94.645 22.3051C94.5325 22.1036 94.4259 21.8251 94.2009 21.7481C94.0706 21.7066 93.9758 21.6947 93.6975 21.837L92.513 22.5362C92.1458 22.7496 92.057 22.9333 92.2702 23.3836C92.7826 24.4769 93.5883 25.4062 94.5977 26.0681C95.8659 26.8771 97.3463 27.2897 98.8499 27.2533C100.449 27.326 102.023 26.8353 103.298 25.8666C103.855 25.4166 104.301 24.8428 104.599 24.1908C104.897 23.5387 105.04 22.8262 105.015 22.1096C105.033 20.3555 104.139 18.8088 101.947 17.7303Z" fill="#2C252D"/>
<path d="M17.5482 0.793943C18.3415 0.445502 19.1693 0.181339 20.0178 0.00579451C20.6396 0.00579451 20.8706 -0.0712424 22.0551 1.19098C23.2395 2.4532 27.4562 8.82357 28.232 9.93172C29.0079 11.0399 33.8346 18.8206 34.5571 20.5984C35.2204 22.2517 36.3812 23.8399 34.0833 25.7065C31.8626 27.4011 29.4824 28.8757 26.9765 30.1095C25.7328 30.7317 23.6659 31.8873 22.4578 32.3495C21.2496 32.8117 20.9594 33.1732 18.2529 32.7702C15.5464 32.3673 12.834 31.9051 11.2231 31.5436C9.61224 31.1821 6.77544 30.5362 5.37185 29.7658C3.96826 28.9954 3.23981 29.0902 3.05622 25.9969C2.91634 23.5146 3.09949 21.0246 3.60107 18.5895C3.98602 16.3376 4.70855 12.3139 5.31855 10.8028C5.92855 9.29172 6.33719 8.22505 8.68243 6.41765C11.0277 4.61024 12.6563 3.53172 14.0125 2.64876C15.1584 1.97012 16.3386 1.35103 17.5482 0.793943ZM14.9779 3.72135C14.4982 4.07691 12.1766 6.09172 11.3771 6.64876C10.7849 7.07542 8.22049 9.34505 7.49204 10.6132C6.85835 11.7095 6.69845 13.511 6.4201 15.0043C6.14175 16.4976 5.52583 20.4562 5.37777 21.7717C5.22971 23.0873 5.01651 26.4532 5.08165 26.791C5.10081 26.9921 5.19875 27.1775 5.35408 27.3065C5.735 27.5939 6.14138 27.8458 6.56816 28.0591C7.47428 28.5865 10.8915 29.9673 13.2486 30.868C15.6056 31.7688 19.313 32.391 20.3139 32.2428C21.8621 31.8305 23.3409 31.1915 24.7023 30.3465C26.3251 29.1614 29.1263 27.188 29.9258 26.3939C30.9445 25.3747 31.8387 24.5747 32.5909 23.8339C32.6872 23.7628 32.7596 23.6641 32.7988 23.5509C32.8379 23.4377 32.8418 23.3153 32.81 23.1999C32.7508 23.028 32.1408 21.6651 31.4123 20.1243C30.6839 18.5836 29.4994 16.1421 28.5163 14.0799C27.5332 12.0176 25.9046 8.93024 24.8445 7.07542C24.0082 5.64246 23.0721 4.27018 22.0432 2.96876C21.5384 2.30841 20.9558 1.71149 20.308 1.19098C20.0178 0.965795 19.7157 1.04876 19.2123 1.19098C18.6502 1.38174 18.1117 1.63624 17.6074 1.9495C17.6074 1.9495 15.4457 3.37172 14.9779 3.72135Z" fill="#E03B58"/>
<path d="M35.9243 16.7581C36.2903 17.585 36.5721 18.4466 36.7653 19.33C36.7949 19.9759 36.8541 20.2189 35.6105 21.4752C34.3668 22.7315 27.947 27.1996 26.8395 27.9937C25.732 28.7878 17.956 33.9196 16.1141 34.7196C14.45 35.4248 12.8569 36.6633 10.9321 34.2752C9.1841 31.9615 7.65919 29.4872 6.37783 26.8855C5.7323 25.5937 4.53599 23.4426 4.05035 22.1863C3.56472 20.93 3.19162 20.6278 3.57065 17.8011C3.94967 14.9744 4.37608 12.1241 4.71958 10.4411C5.06307 8.75813 5.67899 5.78332 6.43705 4.30776C7.19511 2.83221 7.08259 2.09739 10.2096 1.86628C12.724 1.69871 15.2495 1.86811 17.7191 2.36998C19.9992 2.74332 24.0856 3.45443 25.6254 4.07665C27.1652 4.69887 28.249 5.11369 30.1086 7.54332C31.9682 9.97295 33.0698 11.6915 33.9996 13.1018C34.9294 14.5122 36.0072 16.9596 35.9243 16.7581ZM32.9217 14.1033C32.5604 13.6055 30.5528 11.1818 29.9132 10.3759C29.2736 9.56998 26.9875 6.95072 25.8445 6.35813C24.7015 5.76554 22.8834 5.56406 21.385 5.28554C19.8867 5.00702 15.8476 4.41443 14.5151 4.29591C13.1826 4.17739 9.77725 3.96998 9.42783 4.03517C9.22307 4.06489 9.037 4.17067 8.90666 4.33146C8.62252 4.73438 8.3729 5.16059 8.16045 5.60554C7.63929 6.55961 6.289 10.1448 5.41249 12.6159C4.53599 15.087 3.94967 18.9685 4.10958 20.0115C4.54868 21.6207 5.21473 23.1591 6.08764 24.5804C7.30764 26.2633 9.34492 29.1611 10.1681 29.9907C11.2105 31.0455 12.0337 31.97 12.7917 32.7463C12.8616 32.8436 12.961 32.9158 13.0752 32.9521C13.1894 32.9884 13.3122 32.9869 13.4254 32.9478C13.6031 32.8826 14.9771 32.2307 16.5228 31.4544C18.0685 30.6781 20.5381 29.41 22.605 28.3611C24.6719 27.3122 27.793 25.57 29.6585 24.45C31.1092 23.5624 32.4946 22.5723 33.8041 21.487C34.4657 20.9436 35.0619 20.3251 35.5808 19.6441C35.8 19.3359 35.7111 19.0159 35.5808 18.5004C35.3781 17.916 35.112 17.3556 34.7872 16.8292C34.7872 16.8292 33.2889 14.6011 32.9217 14.1033Z" fill="#9F75A1"/>
<path d="M25.0456 34.2277C24.4048 34.8314 23.7021 35.3657 22.9491 35.8218C22.3569 36.0529 22.1555 36.1892 20.5802 35.3655C19.0048 34.5418 12.7864 29.7181 11.6671 28.9003C10.5478 28.0825 3.25144 22.1269 1.93669 20.604C0.734453 19.2114 -0.929721 18.0499 0.639696 15.4544C2.19329 13.0532 3.97854 10.8104 5.96979 8.75805C6.94698 7.73287 8.54008 5.91361 9.52319 5.04842C10.5063 4.18324 10.678 3.74472 13.4082 3.23509C16.1384 2.72546 18.9042 2.25731 20.5683 2.04991C22.2325 1.8425 25.1877 1.55805 26.7986 1.8662C28.4095 2.17435 29.0787 1.81287 30.3165 4.76991C31.2984 7.14706 31.9711 9.64054 32.3182 12.1892C32.7269 14.5121 33.4139 18.7077 33.3487 20.3729C33.2836 22.0381 33.254 23.2292 31.6253 25.7832C29.9967 28.3373 28.8063 29.9314 27.7817 31.2647C26.9206 32.2983 26.0074 33.2872 25.0456 34.2277ZM26.5084 30.5003C26.846 29.9966 28.4154 27.2825 28.9544 26.4351C29.4933 25.5877 31.1515 22.5477 31.3233 21.2558C31.495 19.964 31.0864 18.1625 30.8436 16.604C30.6008 15.0455 29.8249 10.9803 29.4992 9.65287C29.1735 8.32546 28.2378 4.95954 28.0601 4.65139C28.0171 4.557 27.9557 4.47218 27.8794 4.40195C27.8031 4.33172 27.7135 4.2775 27.6159 4.2425C27.1545 4.08439 26.6783 3.97321 26.1945 3.91065C25.1463 3.70324 21.3975 3.50176 18.8212 3.41287C16.245 3.32398 12.4844 3.96991 11.5782 4.44398C10.2347 5.36857 9.03695 6.48913 8.02484 7.76842C6.84037 9.46916 4.86232 12.3432 4.37076 13.3921C3.743 14.7255 3.1863 15.8099 2.69474 16.7818C2.62466 16.8815 2.58705 17.0005 2.58705 17.1225C2.58705 17.2445 2.62466 17.3635 2.69474 17.4632C2.81319 17.6114 3.87921 18.7373 5.09329 19.9995C6.30737 21.2618 8.29727 23.2469 9.9496 24.924C11.6019 26.601 14.2196 29.0721 15.8719 30.5358C17.1638 31.6521 18.5311 32.6778 19.9643 33.6055C20.6787 34.0805 21.4483 34.4666 22.2562 34.7551C22.6115 34.8736 22.884 34.6899 23.3104 34.3995C23.7891 34.0266 24.2206 33.5968 24.5955 33.1195C24.5955 33.1195 26.1709 31.004 26.5084 30.5003Z" fill="#EC6162"/>
</g>
<defs>
<clipPath id="clip0">
<rect width="183" height="36" fill="white"/>
</clipPath>
</defs>
</svg>
