<svg width="14" height="18" viewBox="0 0 14 18" fill="none" xmlns="http://www.w3.org/2000/svg">
<path d="M7 9C6.10156 9 5.32031 8.25781 5.32031 7.32031C5.32031 6.42188 6.10156 5.67969 7 5.67969C7.89844 5.67969 8.67969 6.42188 8.67969 7.32031C8.67969 8.25781 7.89844 9 7 9ZM12 7.51562C12 4.46875 9.77344 2.32031 7 2.32031C4.22656 2.32031 2 4.46875 2 7.51562C2 9.46875 3.64062 12.0469 7 15.1328C10.3594 12.0469 12 9.46875 12 7.51562ZM7 0.679688C10.5156 0.679688 13.6797 3.33594 13.6797 7.51562C13.6797 10.25 11.4531 13.5312 7 17.3203C2.54688 13.5312 0.320312 10.25 0.320312 7.51562C0.320312 3.33594 3.48438 0.679688 7 0.679688Z" fill="#26273D"/>
</svg>
