<svg width="20" height="20" viewBox="0 0 20 20" fill="none" xmlns="http://www.w3.org/2000/svg">
<path d="M10 0.015625C4.46875 0.015625 0.015625 4.46875 0.015625 10C0.015625 15.5312 4.46875 19.9844 10 19.9844C15.5312 19.9844 19.9844 15.5312 19.9844 10C19.9844 4.46875 15.5312 0.015625 10 0.015625ZM5.07812 16.2812C5.5 15.3906 8.125 14.5 10 14.5C11.875 14.5 14.5 15.3906 14.9219 16.2812C13.5625 17.3594 11.875 18.0156 10 18.0156C8.125 18.0156 6.4375 17.3594 5.07812 16.2812ZM16.375 14.8281C14.9219 13.0938 11.4531 12.4844 10 12.4844C8.54688 12.4844 5.07812 13.0938 3.625 14.8281C2.64062 13.4688 1.98438 11.8281 1.98438 10C1.98438 5.59375 5.59375 1.98438 10 1.98438C14.4062 1.98438 18.0156 5.59375 18.0156 10C18.0156 11.8281 17.3594 13.4688 16.375 14.8281ZM10 4C8.07812 4 6.48438 5.54688 6.48438 7.51562C6.48438 9.4375 8.07812 10.9844 10 10.9844C11.9219 10.9844 13.5156 9.4375 13.5156 7.51562C13.5156 5.54688 11.9219 4 10 4ZM10 9.01562C9.15625 9.01562 8.5 8.3125 8.5 7.51562C8.5 6.67188 9.15625 6.01562 10 6.01562C10.8438 6.01562 11.5 6.67188 11.5 7.51562C11.5 8.3125 10.8438 9.01562 10 9.01562Z" fill="#676777"/>
</svg>
