<svg width="18" height="20" viewBox="0 0 18 20" fill="none" xmlns="http://www.w3.org/2000/svg">
<path d="M15 1.98438H18V10H9.98438V19C9.98438 19.2812 9.89062 19.5156 9.70312 19.7031C9.51562 19.8906 9.28125 19.9844 9 19.9844H6.98438C6.70312 19.9844 6.46875 19.8906 6.28125 19.7031C6.09375 19.5156 6 19.2812 6 19V7.98438H15.9844V4H15V4.98438C15 5.26562 14.9062 5.51562 14.7188 5.73438C14.5312 5.92188 14.2969 6.01562 14.0156 6.01562H2.01562C1.73438 6.01562 1.48438 5.92188 1.26562 5.73438C1.07812 5.51562 0.984375 5.26562 0.984375 4.98438V1C0.984375 0.71875 1.07812 0.484375 1.26562 0.296875C1.48438 0.109375 1.73438 0.015625 2.01562 0.015625H14.0156C14.2969 0.015625 14.5312 0.109375 14.7188 0.296875C14.9062 0.484375 15 0.71875 15 1V1.98438Z" fill="#3655F2"/>
</svg>
