<svg width="18" height="18" viewBox="0 0 18 18" fill="none" xmlns="http://www.w3.org/2000/svg">
<path d="M9 0.679688C4.39062 0.679688 0.679688 4.39062 0.679688 9C0.679688 13.6094 4.39062 17.3203 9 17.3203C13.6094 17.3203 17.3203 13.6094 17.3203 9C17.3203 4.39062 13.6094 0.679688 9 0.679688ZM4.89844 14.2344C5.25 13.4922 7.4375 12.75 9 12.75C10.5625 12.75 12.75 13.4922 13.1016 14.2344C11.9688 15.1328 10.5625 15.6797 9 15.6797C7.4375 15.6797 6.03125 15.1328 4.89844 14.2344ZM14.3125 13.0234C13.1016 11.5781 10.2109 11.0703 9 11.0703C7.78906 11.0703 4.89844 11.5781 3.6875 13.0234C2.86719 11.8906 2.32031 10.5234 2.32031 9C2.32031 5.32812 5.32812 2.32031 9 2.32031C12.6719 2.32031 15.6797 5.32812 15.6797 9C15.6797 10.5234 15.1328 11.8906 14.3125 13.0234ZM9 4C7.39844 4 6.07031 5.28906 6.07031 6.92969C6.07031 8.53125 7.39844 9.82031 9 9.82031C10.6016 9.82031 11.9297 8.53125 11.9297 6.92969C11.9297 5.28906 10.6016 4 9 4ZM9 8.17969C8.29688 8.17969 7.75 7.59375 7.75 6.92969C7.75 6.22656 8.29688 5.67969 9 5.67969C9.70312 5.67969 10.25 6.22656 10.25 6.92969C10.25 7.59375 9.70312 8.17969 9 8.17969Z" fill="#26273D"/>
</svg>
